<svg width="36" height="37" viewBox="0 0 36 37" fill="none" xmlns="http://www.w3.org/2000/svg">
<path d="M18 36.2383C27.9411 36.2383 36 28.1794 36 18.2383C36 8.29716 27.9411 0.238281 18 0.238281C8.05888 0.238281 0 8.29716 0 18.2383C0 28.1794 8.05888 36.2383 18 36.2383Z" fill="black"/>
<path d="M23.9557 14.4962C23.5151 14.6966 23.0411 14.8321 22.5441 14.8926C23.0516 14.5808 23.4411 14.0875 23.6249 13.4986C23.15 13.7875 22.6238 13.9971 22.0642 14.11C21.6159 13.6204 20.9772 13.3145 20.2699 13.3145C18.9128 13.3145 17.8122 14.4431 17.8122 15.8346C17.8122 16.0321 17.834 16.2244 17.8762 16.4089C15.8336 16.3039 14.0226 15.3006 12.8103 13.7755C12.5988 14.1476 12.4775 14.5808 12.4775 15.0426C12.4775 15.9167 12.9117 16.6884 13.5708 17.1402C13.1681 17.1273 12.7889 17.0139 12.4577 16.8247C12.4575 16.8354 12.4575 16.8461 12.4575 16.8566C12.4575 18.0777 13.305 19.0962 14.4291 19.3275C14.2231 19.3854 14.0055 19.416 13.7817 19.416C13.623 19.416 13.4692 19.4004 13.3193 19.3711C13.632 20.3721 14.5394 21.1008 15.6151 21.1213C14.7739 21.7973 13.7143 22.2001 12.5625 22.2001C12.3646 22.2001 12.1685 22.1882 11.9766 22.1647C13.0636 22.88 14.3558 23.2971 15.7436 23.2971C20.2642 23.2971 22.7363 19.457 22.7363 16.1265C22.7363 16.0173 22.7339 15.9085 22.7292 15.8006C23.2098 15.4454 23.6264 15.0016 23.9557 14.4962Z" fill="white"/>
</svg>
