<svg width="36" height="37" viewBox="0 0 36 37" fill="none" xmlns="http://www.w3.org/2000/svg">
<circle cx="18" cy="18.2383" r="18" fill="black"/>
<path d="M20.2122 12.2168H15.7201C13.6529 12.2168 11.9766 13.8931 11.9766 15.9603V20.4525C11.9766 22.5196 13.6529 24.196 15.7201 24.196H20.2122C22.2794 24.196 23.9557 22.5196 23.9557 20.4525V15.9603C23.9557 13.8931 22.2794 12.2168 20.2122 12.2168ZM22.8327 20.4525C22.8327 21.8975 21.6572 23.0729 20.2122 23.0729H15.7201C14.2751 23.0729 13.0996 21.8975 13.0996 20.4525V15.9603C13.0996 14.5153 14.2751 13.3398 15.7201 13.3398H20.2122C21.6572 13.3398 22.8327 14.5153 22.8327 15.9603V20.4525Z" fill="white"/>
<path d="M17.9667 15.2119C16.3128 15.2119 14.9719 16.5528 14.9719 18.2067C14.9719 19.8606 16.3128 21.2015 17.9667 21.2015C19.6205 21.2015 20.9614 19.8606 20.9614 18.2067C20.9614 16.5528 19.6205 15.2119 17.9667 15.2119ZM17.9667 20.0785C16.9349 20.0785 16.0949 19.2384 16.0949 18.2067C16.0949 17.1743 16.9349 16.335 17.9667 16.335C18.9984 16.335 19.8384 17.1743 19.8384 18.2067C19.8384 19.2384 18.9984 20.0785 17.9667 20.0785Z" fill="white"/>
<path d="M21.1881 15.386C21.4085 15.386 21.5872 15.2073 21.5872 14.9869C21.5872 14.7666 21.4085 14.5879 21.1881 14.5879C20.9677 14.5879 20.7891 14.7666 20.7891 14.9869C20.7891 15.2073 20.9677 15.386 21.1881 15.386Z" fill="white"/>
</svg>
