<svg width="36" height="37" viewBox="0 0 36 37" fill="none" xmlns="http://www.w3.org/2000/svg">
<circle cx="18" cy="18.2383" r="18" fill="black"/>
<path d="M23.8877 24.197V24.1965H23.8907V19.803C23.8907 17.6537 23.428 15.998 20.9153 15.998C19.7073 15.998 18.8967 16.6609 18.5658 17.2893H18.5309V16.1987H16.1484V24.1965H18.6292V20.2363C18.6292 19.1936 18.8268 18.1853 20.1181 18.1853C21.3905 18.1853 21.4094 19.3753 21.4094 20.3032V24.197H23.8877Z" fill="white"/>
<path d="M12.1055 16.1992H14.5892V24.197H12.1055V16.1992Z" fill="white"/>
<path d="M13.4151 11.918C12.621 11.918 11.9766 12.5624 11.9766 13.3565C11.9766 14.1506 12.621 14.8085 13.4151 14.8085C14.2092 14.8085 14.8536 14.1506 14.8536 13.3565C14.8531 12.5624 14.2087 11.918 13.4151 11.918V11.918Z" fill="white"/>
</svg>
