<?xml version="1.0" standalone="no"?><svg xmlns="http://www.w3.org/2000/svg" viewBox="0 0 1440 320"><path fill="#0078D4" fill-opacity="2" d="M0,256L26.7,250.7C53.3,245,107,235,160,234.7C213.3,235,267,245,320,240C373.3,235,427,213,480,170.7C533.3,128,587,64,640,42.7C693.3,21,747,43,800,90.7C853.3,139,907,213,960,250.7C1013.3,288,1067,288,1120,250.7C1173.3,213,1227,139,1280,96C1333.3,53,1387,43,1413,37.3L1440,32L1440,320L1413.3,320C1386.7,320,1333,320,1280,320C1226.7,320,1173,320,1120,320C1066.7,320,1013,320,960,320C906.7,320,853,320,800,320C746.7,320,693,320,640,320C586.7,320,533,320,480,320C426.7,320,373,320,320,320C266.7,320,213,320,160,320C106.7,320,53,320,27,320L0,320Z"></path></svg>